<?xml version="1.0" encoding="UTF-8" standalone="no"?>
<!DOCTYPE svg PUBLIC "-//W3C//DTD SVG 1.1//EN"
 "http://www.w3.org/Graphics/SVG/1.1/DTD/svg11.dtd">
<!-- Generated by graphviz version 2.30.1 (20130221.2233)
 -->
<!-- Title: G Pages: 1 -->
<svg width="798pt" height="996pt"
 viewBox="0.00 0.00 798.00 996.00" xmlns="http://www.w3.org/2000/svg" xmlns:xlink="http://www.w3.org/1999/xlink">
<g id="graph0" class="graph" transform="scale(1 1) rotate(0) translate(4 992)">
<title>G</title>
<polygon fill="white" stroke="white" points="-4,5 -4,-992 795,-992 795,5 -4,5"/>
<g id="clust1" class="cluster"><title>cluster_global</title>
<path fill="none" stroke="gray" d="M20,-44C20,-44 770,-44 770,-44 776,-44 782,-50 782,-56 782,-56 782,-968 782,-968 782,-974 776,-980 770,-980 770,-980 20,-980 20,-980 14,-980 8,-974 8,-968 8,-968 8,-56 8,-56 8,-50 14,-44 20,-44"/>
<text text-anchor="middle" x="395" y="-967.2" font-family="Times,serif" font-size="11.00" fill="gray">global</text>
</g>
<!-- \\Services_Zencoder_Account -->
<g id="node1" class="node"><title>\\Services_Zencoder_Account</title>
<g id="a_node1"><a xlink:href="Zencoder.Account.html" xlink:title="Services_Zencoder_Account" target="_parent">
<polygon fill="none" stroke="black" points="754,-466 572,-466 572,-430 754,-430 754,-466"/>
<text text-anchor="middle" x="663" y="-445.2" font-family="Courier,monospace" font-size="11.00">Services_Zencoder_Account</text>
</a>
</g>
</g>
<!-- \\Services_Zencoder_Object -->
<g id="node15" class="node"><title>\\Services_Zencoder_Object</title>
<g id="a_node15"><a xlink:href="Zencoder.Object.html" xlink:title="Services_Zencoder_Object" target="_parent">
<polygon fill="none" stroke="black" points="469.5,-358 294.5,-358 294.5,-322 469.5,-322 469.5,-358"/>
<text text-anchor="middle" x="382" y="-337.2" font-family="Courier,monospace" font-size="11.00">Services_Zencoder_Object</text>
</a>
</g>
</g>
<!-- \\Services_Zencoder_Account&#45;&gt;\\Services_Zencoder_Object -->
<g id="edge1" class="edge"><title>\\Services_Zencoder_Account&#45;&gt;\\Services_Zencoder_Object</title>
<path fill="none" stroke="black" d="M580.341,-429.96C570.7,-427.242 561.071,-424.248 552,-421 507.061,-404.91 458.127,-380.66 424.535,-362.887"/>
<polygon fill="none" stroke="black" points="425.954,-359.677 415.483,-358.058 422.659,-365.853 425.954,-359.677"/>
</g>
<!-- \\Services_Zencoder_Accounts -->
<g id="node2" class="node"><title>\\Services_Zencoder_Accounts</title>
<g id="a_node2"><a xlink:href="Zencoder.Accounts.html" xlink:title="Services_Zencoder_Accounts" target="_parent">
<polygon fill="none" stroke="black" points="757,-628 569,-628 569,-592 757,-592 757,-628"/>
<text text-anchor="middle" x="663" y="-607.2" font-family="Courier,monospace" font-size="11.00">Services_Zencoder_Accounts</text>
</a>
</g>
</g>
<!-- \\Services_Zencoder_Base -->
<g id="node3" class="node"><title>\\Services_Zencoder_Base</title>
<g id="a_node3"><a xlink:href="Zencoder.Base.html" xlink:title="«abstract»&lt;br/&gt;Services_Zencoder_Base" target="_parent">
<polygon fill="none" stroke="black" points="463.5,-817 300.5,-817 300.5,-781 463.5,-781 463.5,-817"/>
<text text-anchor="start" x="348.5" y="-802.7" font-family="Courier,monospace" font-size="11.00">«abstract»</text>
<text text-anchor="start" x="309" y="-791.7" font-family="Courier,monospace" font-size="11.00">Services_Zencoder_Base</text>
</a>
</g>
</g>
<!-- \\Services_Zencoder_Accounts&#45;&gt;\\Services_Zencoder_Base -->
<g id="edge2" class="edge"><title>\\Services_Zencoder_Accounts&#45;&gt;\\Services_Zencoder_Base</title>
<path fill="none" stroke="black" d="M571.376,-628.104C564.654,-630.689 558.118,-633.638 552,-637 488.522,-671.883 431.523,-736.706 402.745,-772.88"/>
<polygon fill="none" stroke="black" points="399.797,-770.969 396.38,-780.997 405.305,-775.288 399.797,-770.969"/>
</g>
<!-- \\Services_Zencoder_HttpProxy -->
<g id="node8" class="node"><title>\\Services_Zencoder_HttpProxy</title>
<g id="a_node8"><a xlink:href="Zencoder.HttpProxy.html" xlink:title="Services_Zencoder_HttpProxy" target="_parent">
<polygon fill="none" stroke="black" points="211.5,-817 16.5,-817 16.5,-781 211.5,-781 211.5,-817"/>
<text text-anchor="middle" x="114" y="-796.2" font-family="Courier,monospace" font-size="11.00">Services_Zencoder_HttpProxy</text>
</a>
</g>
</g>
<!-- \\Services_Zencoder_Base&#45;&gt;\\Services_Zencoder_HttpProxy -->
<g id="edge18" class="edge"><title>\\Services_Zencoder_Base&#45;&gt;\\Services_Zencoder_HttpProxy</title>
<path fill="none" stroke="black" stroke-dasharray="1,5" d="M300.469,-799C275.766,-799 248.186,-799 222.005,-799"/>
<polygon fill="none" stroke="black" points="221.663,-795.5 211.663,-799 221.662,-802.5 221.663,-795.5"/>
</g>
<!-- \\Services_Zencoder_Error -->
<g id="node4" class="node"><title>\\Services_Zencoder_Error</title>
<g id="a_node4"><a xlink:href="Zencoder.Error.html" xlink:title="Services_Zencoder_Error" target="_parent">
<polygon fill="none" stroke="black" points="747,-412 579,-412 579,-376 747,-376 747,-412"/>
<text text-anchor="middle" x="663" y="-391.2" font-family="Courier,monospace" font-size="11.00">Services_Zencoder_Error</text>
</a>
</g>
</g>
<!-- \\Services_Zencoder_Error&#45;&gt;\\Services_Zencoder_Object -->
<g id="edge3" class="edge"><title>\\Services_Zencoder_Error&#45;&gt;\\Services_Zencoder_Object</title>
<path fill="none" stroke="black" d="M578.669,-377.871C547.528,-371.844 511.905,-364.949 479.662,-358.709"/>
<polygon fill="none" stroke="black" points="480.256,-355.259 469.773,-356.795 478.926,-362.131 480.256,-355.259"/>
</g>
<!-- \\Services_Zencoder_Exception -->
<g id="node5" class="node"><title>\\Services_Zencoder_Exception</title>
<g id="a_node5"><a xlink:href="Zencoder.Exception.html" xlink:title="Services_Zencoder_Exception" target="_parent">
<polygon fill="none" stroke="black" points="479.5,-88 284.5,-88 284.5,-52 479.5,-52 479.5,-88"/>
<text text-anchor="middle" x="382" y="-67.2" font-family="Courier,monospace" font-size="11.00">Services_Zencoder_Exception</text>
</a>
</g>
</g>
<!-- \\ErrorException -->
<g id="node22" class="node"><title>\\ErrorException</title>
<ellipse fill="none" stroke="black" cx="114" cy="-18" rx="69.5877" ry="18"/>
<text text-anchor="middle" x="114" y="-14.3" font-family="Times,serif" font-size="14.00" fill="gray">\ErrorException</text>
</g>
<!-- \\Services_Zencoder_Exception&#45;&gt;\\ErrorException -->
<g id="edge4" class="edge"><title>\\Services_Zencoder_Exception&#45;&gt;\\ErrorException</title>
<path fill="none" stroke="black" d="M288.713,-51.9589C252.812,-44.9408 212.532,-37.0665 179.805,-30.6686"/>
<polygon fill="none" stroke="black" points="180.389,-27.2167 169.904,-28.733 179.046,-34.0867 180.389,-27.2167"/>
</g>
<!-- \\Services_Zencoder_HttpException -->
<g id="node6" class="node"><title>\\Services_Zencoder_HttpException</title>
<g id="a_node6"><a xlink:href="Zencoder.Http.html" xlink:title="Services_Zencoder_HttpException" target="_parent">
<polygon fill="none" stroke="black" points="773.5,-88 552.5,-88 552.5,-52 773.5,-52 773.5,-88"/>
<text text-anchor="middle" x="663" y="-67.2" font-family="Courier,monospace" font-size="11.00">Services_Zencoder_HttpException</text>
</a>
</g>
</g>
<!-- \\Services_Zencoder_HttpException&#45;&gt;\\Services_Zencoder_Exception -->
<g id="edge5" class="edge"><title>\\Services_Zencoder_HttpException&#45;&gt;\\Services_Zencoder_Exception</title>
<path fill="none" stroke="black" d="M552.132,-70C531.652,-70 510.278,-70 489.888,-70"/>
<polygon fill="none" stroke="black" points="489.647,-66.5001 479.647,-70 489.647,-73.5001 489.647,-66.5001"/>
</g>
<!-- \\Services_Zencoder_Http -->
<g id="node7" class="node"><title>\\Services_Zencoder_Http</title>
<g id="a_node7"><a xlink:href="Zencoder.Http.html" xlink:title="Services_Zencoder_Http" target="_parent">
<polygon fill="none" stroke="black" points="744,-736 582,-736 582,-700 744,-700 744,-736"/>
<text text-anchor="middle" x="663" y="-715.2" font-family="Courier,monospace" font-size="11.00">Services_Zencoder_Http</text>
</a>
</g>
</g>
<!-- \\Services_Zencoder_Input -->
<g id="node9" class="node"><title>\\Services_Zencoder_Input</title>
<g id="a_node9"><a xlink:href="Zencoder.Input.html" xlink:title="Services_Zencoder_Input" target="_parent">
<polygon fill="none" stroke="black" points="747,-304 579,-304 579,-268 747,-268 747,-304"/>
<text text-anchor="middle" x="663" y="-283.2" font-family="Courier,monospace" font-size="11.00">Services_Zencoder_Input</text>
</a>
</g>
</g>
<!-- \\Services_Zencoder_Input&#45;&gt;\\Services_Zencoder_Object -->
<g id="edge6" class="edge"><title>\\Services_Zencoder_Input&#45;&gt;\\Services_Zencoder_Object</title>
<path fill="none" stroke="black" d="M578.669,-302.129C547.528,-308.156 511.905,-315.051 479.662,-321.291"/>
<polygon fill="none" stroke="black" points="478.926,-317.869 469.773,-323.205 480.256,-324.741 478.926,-317.869"/>
</g>
<!-- \\Services_Zencoder_Inputs -->
<g id="node10" class="node"><title>\\Services_Zencoder_Inputs</title>
<g id="a_node10"><a xlink:href="Zencoder.Inputs.html" xlink:title="Services_Zencoder_Inputs" target="_parent">
<polygon fill="none" stroke="black" points="750.5,-952 575.5,-952 575.5,-916 750.5,-916 750.5,-952"/>
<text text-anchor="middle" x="663" y="-931.2" font-family="Courier,monospace" font-size="11.00">Services_Zencoder_Inputs</text>
</a>
</g>
</g>
<!-- \\Services_Zencoder_Inputs&#45;&gt;\\Services_Zencoder_Base -->
<g id="edge7" class="edge"><title>\\Services_Zencoder_Inputs&#45;&gt;\\Services_Zencoder_Base</title>
<path fill="none" stroke="black" d="M576.41,-915.943C568.038,-913.302 559.773,-910.329 552,-907 500.435,-884.914 446.841,-847.855 414.194,-823.414"/>
<polygon fill="none" stroke="black" points="416.046,-820.427 405.96,-817.184 411.822,-826.009 416.046,-820.427"/>
</g>
<!-- \\Services_Zencoder_Job -->
<g id="node11" class="node"><title>\\Services_Zencoder_Job</title>
<g id="a_node11"><a xlink:href="Zencoder.Job.html" xlink:title="Services_Zencoder_Job" target="_parent">
<polygon fill="none" stroke="black" points="740.5,-250 585.5,-250 585.5,-214 740.5,-214 740.5,-250"/>
<text text-anchor="middle" x="663" y="-229.2" font-family="Courier,monospace" font-size="11.00">Services_Zencoder_Job</text>
</a>
</g>
</g>
<!-- \\Services_Zencoder_Job&#45;&gt;\\Services_Zencoder_Object -->
<g id="edge8" class="edge"><title>\\Services_Zencoder_Job&#45;&gt;\\Services_Zencoder_Object</title>
<path fill="none" stroke="black" d="M585.356,-248.651C574.058,-251.727 562.645,-255.189 552,-259 507.061,-275.09 458.127,-299.34 424.535,-317.113"/>
<polygon fill="none" stroke="black" points="422.659,-314.147 415.483,-321.942 425.954,-320.323 422.659,-314.147"/>
</g>
<!-- \\Services_Zencoder_Jobs -->
<g id="node12" class="node"><title>\\Services_Zencoder_Jobs</title>
<g id="a_node12"><a xlink:href="Zencoder.Jobs.html" xlink:title="Services_Zencoder_Jobs" target="_parent">
<polygon fill="none" stroke="black" points="744,-898 582,-898 582,-862 744,-862 744,-898"/>
<text text-anchor="middle" x="663" y="-877.2" font-family="Courier,monospace" font-size="11.00">Services_Zencoder_Jobs</text>
</a>
</g>
</g>
<!-- \\Services_Zencoder_Jobs&#45;&gt;\\Services_Zencoder_Base -->
<g id="edge9" class="edge"><title>\\Services_Zencoder_Jobs&#45;&gt;\\Services_Zencoder_Base</title>
<path fill="none" stroke="black" d="M585.487,-861.937C574.224,-859.07 562.787,-856.043 552,-853 516.672,-843.033 477.613,-830.643 445.951,-820.247"/>
<polygon fill="none" stroke="black" points="446.968,-816.897 436.375,-817.089 444.776,-823.545 446.968,-816.897"/>
</g>
<!-- \\Services_Zencoder_Notification -->
<g id="node13" class="node"><title>\\Services_Zencoder_Notification</title>
<g id="a_node13"><a xlink:href="Zencoder.Notification.html" xlink:title="Services_Zencoder_Notification" target="_parent">
<polygon fill="none" stroke="black" points="770.5,-196 555.5,-196 555.5,-160 770.5,-160 770.5,-196"/>
<text text-anchor="middle" x="663" y="-175.2" font-family="Courier,monospace" font-size="11.00">Services_Zencoder_Notification</text>
</a>
</g>
</g>
<!-- \\Services_Zencoder_Notification&#45;&gt;\\Services_Zencoder_Object -->
<g id="edge10" class="edge"><title>\\Services_Zencoder_Notification&#45;&gt;\\Services_Zencoder_Object</title>
<path fill="none" stroke="black" d="M573.713,-196.011C566.218,-198.632 558.881,-201.614 552,-205 494.538,-233.281 438.633,-283.796 407.713,-314.369"/>
<polygon fill="none" stroke="black" points="404.994,-312.138 400.404,-321.687 409.947,-317.084 404.994,-312.138"/>
</g>
<!-- \\Services_Zencoder_Notifications -->
<g id="node14" class="node"><title>\\Services_Zencoder_Notifications</title>
<g id="a_node14"><a xlink:href="Zencoder.Notifications.html" xlink:title="Services_Zencoder_Notifications" target="_parent">
<polygon fill="none" stroke="black" points="773.5,-844 552.5,-844 552.5,-808 773.5,-808 773.5,-844"/>
<text text-anchor="middle" x="663" y="-823.2" font-family="Courier,monospace" font-size="11.00">Services_Zencoder_Notifications</text>
</a>
</g>
</g>
<!-- \\Services_Zencoder_Notifications&#45;&gt;\\Services_Zencoder_Base -->
<g id="edge11" class="edge"><title>\\Services_Zencoder_Notifications&#45;&gt;\\Services_Zencoder_Base</title>
<path fill="none" stroke="black" d="M552.132,-815.368C526.266,-812.864 498.974,-810.223 474.041,-807.81"/>
<polygon fill="none" stroke="black" points="474.17,-804.307 463.879,-806.827 473.495,-811.274 474.17,-804.307"/>
</g>
<!-- \\Services_Zencoder_Output -->
<g id="node16" class="node"><title>\\Services_Zencoder_Output</title>
<g id="a_node16"><a xlink:href="Zencoder.Output.html" xlink:title="Services_Zencoder_Output" target="_parent">
<polygon fill="none" stroke="black" points="750.5,-142 575.5,-142 575.5,-106 750.5,-106 750.5,-142"/>
<text text-anchor="middle" x="663" y="-121.2" font-family="Courier,monospace" font-size="11.00">Services_Zencoder_Output</text>
</a>
</g>
</g>
<!-- \\Services_Zencoder_Output&#45;&gt;\\Services_Zencoder_Object -->
<g id="edge12" class="edge"><title>\\Services_Zencoder_Output&#45;&gt;\\Services_Zencoder_Object</title>
<path fill="none" stroke="black" d="M575.321,-139.928C567.165,-142.993 559.248,-146.646 552,-151 482.573,-192.707 425.642,-272.097 399.11,-313.455"/>
<polygon fill="none" stroke="black" points="396.148,-311.591 393.768,-321.915 402.066,-315.329 396.148,-311.591"/>
</g>
<!-- \\Services_Zencoder_Outputs -->
<g id="node17" class="node"><title>\\Services_Zencoder_Outputs</title>
<g id="a_node17"><a xlink:href="Zencoder.Outputs.html" xlink:title="Services_Zencoder_Outputs" target="_parent">
<polygon fill="none" stroke="black" points="754,-790 572,-790 572,-754 754,-754 754,-790"/>
<text text-anchor="middle" x="663" y="-769.2" font-family="Courier,monospace" font-size="11.00">Services_Zencoder_Outputs</text>
</a>
</g>
</g>
<!-- \\Services_Zencoder_Outputs&#45;&gt;\\Services_Zencoder_Base -->
<g id="edge13" class="edge"><title>\\Services_Zencoder_Outputs&#45;&gt;\\Services_Zencoder_Base</title>
<path fill="none" stroke="black" d="M571.802,-780.729C540.484,-783.76 505.362,-787.159 473.981,-790.195"/>
<polygon fill="none" stroke="black" points="473.55,-786.721 463.934,-791.168 474.225,-793.688 473.55,-786.721"/>
</g>
<!-- \\Services_Zencoder_Progress -->
<g id="node18" class="node"><title>\\Services_Zencoder_Progress</title>
<g id="a_node18"><a xlink:href="Zencoder.Progress.html" xlink:title="Services_Zencoder_Progress" target="_parent">
<polygon fill="none" stroke="black" points="757,-574 569,-574 569,-538 757,-538 757,-574"/>
<text text-anchor="middle" x="663" y="-553.2" font-family="Courier,monospace" font-size="11.00">Services_Zencoder_Progress</text>
</a>
</g>
</g>
<!-- \\Services_Zencoder_Progress&#45;&gt;\\Services_Zencoder_Object -->
<g id="edge14" class="edge"><title>\\Services_Zencoder_Progress&#45;&gt;\\Services_Zencoder_Object</title>
<path fill="none" stroke="black" d="M569.955,-537.954C563.7,-535.359 557.647,-532.392 552,-529 482.573,-487.293 425.642,-407.903 399.11,-366.545"/>
<polygon fill="none" stroke="black" points="402.066,-364.671 393.768,-358.085 396.148,-368.409 402.066,-364.671"/>
</g>
<!-- \\Services_Zencoder_Stream -->
<g id="node19" class="node"><title>\\Services_Zencoder_Stream</title>
<g id="a_node19"><a xlink:href="Zencoder.Stream.html" xlink:title="Services_Zencoder_Stream" target="_parent">
<polygon fill="none" stroke="black" points="750.5,-520 575.5,-520 575.5,-484 750.5,-484 750.5,-520"/>
<text text-anchor="middle" x="663" y="-499.2" font-family="Courier,monospace" font-size="11.00">Services_Zencoder_Stream</text>
</a>
</g>
</g>
<!-- \\Services_Zencoder_Stream&#45;&gt;\\Services_Zencoder_Object -->
<g id="edge15" class="edge"><title>\\Services_Zencoder_Stream&#45;&gt;\\Services_Zencoder_Object</title>
<path fill="none" stroke="black" d="M575.445,-484.587C567.35,-481.824 559.41,-478.647 552,-475 494.538,-446.719 438.633,-396.204 407.713,-365.631"/>
<polygon fill="none" stroke="black" points="409.947,-362.916 400.404,-358.313 404.994,-367.862 409.947,-362.916"/>
</g>
<!-- \\Services_Zencoder_Thumbnail -->
<g id="node20" class="node"><title>\\Services_Zencoder_Thumbnail</title>
<g id="a_node20"><a xlink:href="Zencoder.Thumbnail.html" xlink:title="Services_Zencoder_Thumbnail" target="_parent">
<polygon fill="none" stroke="black" points="760.5,-358 565.5,-358 565.5,-322 760.5,-322 760.5,-358"/>
<text text-anchor="middle" x="663" y="-337.2" font-family="Courier,monospace" font-size="11.00">Services_Zencoder_Thumbnail</text>
</a>
</g>
</g>
<!-- \\Services_Zencoder_Thumbnail&#45;&gt;\\Services_Zencoder_Object -->
<g id="edge16" class="edge"><title>\\Services_Zencoder_Thumbnail&#45;&gt;\\Services_Zencoder_Object</title>
<path fill="none" stroke="black" d="M565.202,-340C537.588,-340 507.504,-340 479.885,-340"/>
<polygon fill="none" stroke="black" points="479.83,-336.5 469.83,-340 479.83,-343.5 479.83,-336.5"/>
</g>
<!-- \\Services_Zencoder -->
<g id="node21" class="node"><title>\\Services_Zencoder</title>
<g id="a_node21"><a xlink:href="Zencoder.html" xlink:title="Services_Zencoder" target="_parent">
<polygon fill="none" stroke="black" points="727.5,-682 598.5,-682 598.5,-646 727.5,-646 727.5,-682"/>
<text text-anchor="middle" x="663" y="-661.2" font-family="Courier,monospace" font-size="11.00">Services_Zencoder</text>
</a>
</g>
</g>
<!-- \\Services_Zencoder&#45;&gt;\\Services_Zencoder_Base -->
<g id="edge17" class="edge"><title>\\Services_Zencoder&#45;&gt;\\Services_Zencoder_Base</title>
<path fill="none" stroke="black" d="M598.306,-675.883C582.828,-679.785 566.551,-684.768 552,-691 500.435,-713.086 446.841,-750.145 414.194,-774.586"/>
<polygon fill="none" stroke="black" points="411.822,-771.991 405.96,-780.816 416.046,-777.573 411.822,-771.991"/>
</g>
</g>
</svg>
